<svg width="512" height="512" viewBox="0 0 512 512" fill="none" xmlns="http://www.w3.org/2000/svg">
    <rect width="512" height="512" rx="120" fill="#09090b"/>
    <rect x="20" y="20" width="472" height="472" rx="100" stroke="url(#top_highlight)" stroke-width="4" stroke-opacity="0.3"/>
    
    <path d="M210 150L110 256L210 362V320L148 256L210 192V150Z" fill="url(#emerald_gradient)"/>
    
    <path d="M302 150L402 256L302 362V320L364 256L302 192V150Z" stroke="url(#indigo_gradient)" stroke-width="24" stroke-linecap="round" stroke-linejoin="round"/>
    <path d="M302 150L402 256L302 362V320L364 256L302 192V150Z" stroke="#818cf8" stroke-width="4" stroke-opacity="0.6" filter="url(#glow_filter)"/>

    <defs>
        <linearGradient id="emerald_gradient" x1="110" y1="150" x2="210" y2="362" gradientUnits="userSpaceOnUse">
            <stop stop-color="#34d399"/> <stop offset="1" stop-color="#059669"/> </linearGradient>
        <linearGradient id="indigo_gradient" x1="402" y1="150" x2="302" y2="362" gradientUnits="userSpaceOnUse">
            <stop stop-color="#818cf8"/> <stop offset="1" stop-color="#4f46e5"/> </linearGradient>
        <linearGradient id="top_highlight" x1="256" y1="20" x2="256" y2="492" gradientUnits="userSpaceOnUse">
            <stop stop-color="white"/>
            <stop offset="0.1" stop-color="white" stop-opacity="0"/>
        </linearGradient>
        <filter id="glow_filter" x="280" y="130" width="140" height="250" filterUnits="userSpaceOnUse" color-interpolation-filters="sRGB">
            <feGaussianBlur stdDeviation="8" result="effect1_foregroundBlur"/>
        </filter>
    </defs>
</svg>
